# Handcrafted edge playground to test edge operations
# Made by Carolina Cuadra Pardo

# Vertices
v 0.0 0.0 0.0
v 0.5 0.0 0.0
v 1.0 0.0 0.0
v 0.75 0.25 0.0
v 0.0 0.5 0.0
v 0.25 0.5 0.0
v 0.5 0.5 0.0
v 1.0 0.5 0.0
v 0.0 0.75 0.0
v 0.25 0.75 0.0
v 0.5 0.75 0.0
v 0.75 0.75 0.0
v 0.0 1.0 0.0
v 0.25 1.0 0.0
v 0.5 1.0 0.0
v 0.75 1.0 0.0
v 1.0 1.0 0.0


# Normal vectors
vn  0.0  0.0  1.0

# Faces
f 1//1 2//1 5//1
f 2//1 7//1 5//1
f 2//1 4//1 7//1
f 2//1 3//1 4//1
f 3//1 8//1 4//1
f 4//1 8//1 7//1
f 5//1 10//1 9//1
f 5//1 6//1 10//1
f 6//1 7//1 10//1
f 7//1 11//1 10//1
f 9//1 10//1 13//1
f 10//1 14//1 13//1
f 10//1 15//1 14//1
f 10//1 11//1 15//1
f 7//1 16//1 15//1
f 12//1 16//1 7//1
f 12//1 8//1 16//1
f 7//1 8//1 12//1
f 8//1 17//1 16//1
