# Edge test scene- Made by Carolina Cuadra Pardo
v 0.000000 0.000000 0.000000
v 0.500000 0.000000 0.000000
v 1.000000 0.000000 0.000000
v 0.750000 0.250000 -0.000000
v 0.000000 0.500000 -0.000000
v 0.250000 0.500000 -0.000000
v 0.500000 0.500000 -0.000000
v 1.000000 0.500000 -0.000000
v 0.000000 0.750000 -0.000000
v 0.250000 0.750000 -0.000000
v 0.500000 0.750000 -0.000000
v 0.750000 0.750000 -0.000000
v 0.000000 1.000000 -0.000000
v 0.250000 1.000000 -0.000000
v 0.500000 1.000000 -0.000000
v 0.750000 1.000000 -0.000000
v 1.000000 1.000000 -0.000000
v 1.000000 1.000000 1.000000
v 1.000000 0.000000 1.000000
v 0.000000 1.000000 1.000000
v 0.000000 0.000000 1.000000
v 0.500000 0.000000 0.500000
v 0.500000 0.500000 1.000000
vn -0.0000 -0.0000 -1.0000
vn 1.0000 -0.0000 -0.0000
vn -0.0000 1.0000 -0.0000
vn -1.0000 -0.0000 -0.0000
vn -0.0000 -1.0000 -0.0000
vn -0.0000 -0.0000 1.0000

f 1//1 5//1 2//1
f 2//1 5//1 6//1
f 2//1 6//1 7//1
f 2//1 7//1 4//1
f 2//1 4//1 3//1
f 3//1 4//1 8//1
f 4//1 7//1 8//1
f 10//1 5//1 9//1
f 10//1 6//1 5//1
f 10//1 7//1 6//1
f 10//1 11//1 7//1
f 10//1 9//1 13//1
f 10//1 13//1 14//1
f 10//1 14//1 15//1
f 10//1 15//1 11//1
f 11//1 15//1 16//1
f 7//1 11//1 16//1
f 7//1 16//1 12//1
f 12//1 16//1 8//1
f 7//1 12//1 8//1
f 8//1 16//1 17//1
f 3//2 8//2 19//2
f 19//2 8//2 18//2
f 8//2 17//2 18//2
f 13//3 20//3 14//3
f 14//3 20//3 15//3
f 15//3 20//3 16//3
f 16//3 18//3 17//3
f 16//3 20//3 18//3
f 21//4 20//4 9//4
f 21//4 9//4 5//4
f 21//4 5//4 1//4
f 20//4 13//4 9//4
f 1//5 2//5 22//5
f 1//5 22//5 21//5
f 2//5 3//5 22//5
f 3//5 19//5 22//5
f 22//5 19//5 21//5
f 19//6 18//6 23//6
f 23//6 18//6 20//6
f 21//6 23//6 20//6
f 19//6 23//6 21//6
